<svg width="38" height="28" viewBox="0 0 38 28" fill="none" xmlns="http://www.w3.org/2000/svg">
<path d="M34.2218 27H31.7667C30.229 27 28.9885 25.7942 28.9885 24.2995V21.6367C28.9885 21.285 29.2728 21.0087 29.6346 21.0087C29.9964 21.0087 30.2807 21.285 30.2807 21.6367V24.2995C30.2807 25.0908 30.9526 25.744 31.7667 25.744H34.2218C35.0359 25.744 35.7078 25.0908 35.7078 24.2995V15.8966C35.7078 14.3643 35.2426 12.8696 34.364 11.5884L33.3431 10.0937L30.7071 4.42899C30.0998 3.11014 28.7301 2.25604 27.2441 2.25604H10.7559C9.26992 2.25604 7.91314 3.11014 7.29289 4.42899L4.70854 10.0058L3.63604 11.5884C2.75736 12.857 2.29218 14.3517 2.29218 15.8841V24.287C2.29218 25.0783 2.96411 25.7314 3.77818 25.7314H6.23331C7.04738 25.7314 7.71931 25.0783 7.71931 24.287V21.6242C7.71931 21.2725 8.00359 20.9961 8.3654 20.9961C8.72721 20.9961 9.01149 21.2725 9.01149 21.6242V24.287C9.01149 25.7816 7.771 26.9874 6.23331 26.9874H3.77818C2.24049 27 1 25.7816 1 24.287V15.8841C1 14.1005 1.54271 12.3672 2.55061 10.885L3.57143 9.39034L6.11701 3.90145C6.94401 2.143 8.76597 1 10.7559 1H27.2441C29.234 1 31.056 2.143 31.883 3.91401L34.4803 9.49082L35.4494 10.8976C36.4702 12.3797 37 14.113 37 15.8966V24.2995C37 25.7816 35.7595 27 34.2218 27Z" fill="#c30c1c" stroke="#c30c1c" stroke-width="0.5"/>
<path d="M36.3539 22.0639H1.64609C1.28428 22.0639 1 21.7876 1 21.4359C1 21.0842 1.28428 20.8079 1.64609 20.8079H36.3539C36.7157 20.8079 37 21.0842 37 21.4359C37 21.775 36.7157 22.0639 36.3539 22.0639Z" fill="#c30c1c" stroke="#c30c1c" stroke-width="0.5"/>
<path d="M33.8856 10.3701H4.11386C3.75205 10.3701 3.46777 10.0937 3.46777 9.74203C3.46777 9.39034 3.75205 9.11401 4.11386 9.11401H33.8856C34.2474 9.11401 34.5317 9.39034 34.5317 9.74203C34.5317 10.0937 34.2474 10.3701 33.8856 10.3701Z" fill="#c30c1c" stroke="#c30c1c" stroke-width="0.5"/>
<path d="M10.8337 18.9238H5.00595C4.64414 18.9238 4.35986 18.6474 4.35986 18.2957V14.0001C4.35986 13.6484 4.64414 13.3721 5.00595 13.3721H10.8337C11.1955 13.3721 11.4797 13.6484 11.4797 14.0001V18.2957C11.4797 18.6474 11.1955 18.9238 10.8337 18.9238ZM5.65204 17.6677H10.1876V14.6281H5.65204V17.6677Z" fill="#c30c1c" stroke="#c30c1c" stroke-width="0.5"/>
<path d="M32.9943 18.9238H27.1666C26.8048 18.9238 26.5205 18.6474 26.5205 18.2957V14.0001C26.5205 13.6484 26.8048 13.3721 27.1666 13.3721H32.9943C33.3561 13.3721 33.6404 13.6484 33.6404 14.0001V18.2957C33.6404 18.6474 33.3561 18.9238 32.9943 18.9238ZM27.8127 17.6677H32.3482V14.6281H27.8127V17.6677Z" fill="#c30c1c" stroke="#c30c1c" stroke-width="0.5"/>
<path d="M24.4917 14.6281H13.5211C13.1593 14.6281 12.875 14.3518 12.875 14.0001C12.875 13.6484 13.1593 13.3721 13.5211 13.3721H24.4917C24.8535 13.3721 25.1378 13.6484 25.1378 14.0001C25.1378 14.3518 24.8406 14.6281 24.4917 14.6281Z" fill="#c30c1c" stroke="#c30c1c" stroke-width="0.5"/>
<path d="M24.4917 18.9238H13.5211C13.1593 18.9238 12.875 18.6474 12.875 18.2957C12.875 17.9441 13.1593 17.6677 13.5211 17.6677H24.4917C24.8535 17.6677 25.1378 17.9441 25.1378 18.2957C25.1378 18.6474 24.8406 18.9238 24.4917 18.9238Z" fill="#c30c1c" stroke="#c30c1c" stroke-width="0.5"/>
<path d="M28.1999 10.3701C27.8381 10.3701 27.5538 10.0938 27.5538 9.74213C27.5538 8.09672 26.1841 6.76532 24.4913 6.76532C22.7986 6.76532 21.4289 8.09672 21.4289 9.74213C21.4289 10.0938 21.1446 10.3701 20.7828 10.3701C20.421 10.3701 20.1367 10.0938 20.1367 9.74213C20.1367 7.40589 22.0879 5.50928 24.4913 5.50928C26.8948 5.50928 28.846 7.40589 28.846 9.74213C28.846 10.0938 28.5617 10.3701 28.1999 10.3701Z" fill="#c30c1c" stroke="#c30c1c" stroke-width="0.5"/>
</svg>
