<svg width="38" height="24" viewBox="0 0 38 24" fill="none" xmlns="http://www.w3.org/2000/svg">
<g clip-path="url(#clip0)">
<path d="M34.0413 6.40005H27.708V5.60005L29.2913 0.800049H32.458L34.0413 5.60005V6.40005Z" stroke="#c30c1c" stroke-width="2" stroke-miterlimit="10"/>
<path d="M30.875 6.40015V10.4001" stroke="#c30c1c" stroke-width="2" stroke-miterlimit="10"/>
<path d="M37.208 10.4001H27.708V16.0001H37.208V10.4001Z" stroke="#c30c1c" stroke-width="2" stroke-miterlimit="10"/>
<path d="M37.208 16H27.708V21.6H37.208V16Z" stroke="#c30c1c" stroke-width="2" stroke-miterlimit="10"/>
<path d="M28.5 21.6001V24.0001" stroke="#c30c1c" stroke-width="2" stroke-miterlimit="10"/>
<path d="M22.958 21.6001V24.0001" stroke="#c30c1c" stroke-width="2" stroke-miterlimit="10"/>
<path d="M2.375 21.6001V24.0001" stroke="#c30c1c" stroke-width="2" stroke-miterlimit="10"/>
<path d="M36.4165 21.6001V24.0001" stroke="#c30c1c" stroke-width="2" stroke-miterlimit="10"/>
<path d="M1.58301 9.60005V1.60005C1.58301 1.12005 1.89967 0.800049 2.37467 0.800049H22.958C23.433 0.800049 23.7497 1.12005 23.7497 1.60005V9.60005" stroke="#c30c1c" stroke-width="2" stroke-miterlimit="10"/>
<path d="M24.5415 21.5999H0.791504V13.6C0.791504 12.24 1.82067 11.2 3.1665 11.2H22.1665C23.5123 11.2 24.5415 12.24 24.5415 13.6V21.5999Z" stroke="#c30c1c" stroke-width="2" stroke-miterlimit="10"/>
<path d="M4.75 9.60015V8.00015C4.75 7.12015 5.4625 6.40015 6.33333 6.40015H9.5C10.3708 6.40015 11.0833 7.12015 11.0833 8.00015V9.60015" stroke="#c30c1c" stroke-width="2" stroke-miterlimit="10"/>
<path d="M14.25 9.60015V8.00015C14.25 7.12015 14.9625 6.40015 15.8333 6.40015H19C19.8708 6.40015 20.5833 7.12015 20.5833 8.00015V9.60015" stroke="#c30c1c" stroke-width="2" stroke-miterlimit="10"/>
</g>
<defs>
<clipPath id="clip0">
<rect width="38" height="24" fill="white"/>
</clipPath>
</defs>
</svg>
